<svg width="49" height="48" viewBox="0 0 49 48" fill="none" xmlns="http://www.w3.org/2000/svg">
<path d="M39.5224 10.2118C39.9129 10.6023 39.9129 11.2355 39.5223 11.6261L27.8546 23.2929C27.4641 23.6834 27.4641 24.3166 27.8546 24.7071L39.5224 36.3749C39.9129 36.7654 39.9129 37.3986 39.5224 37.7891L38.1085 39.203C37.7179 39.5936 37.0848 39.5936 36.6943 39.203L25.0265 27.5353C24.6359 27.1447 24.0027 27.1447 23.6122 27.5353L11.9454 39.203C11.5549 39.5935 10.9217 39.5936 10.5311 39.203L9.11724 37.7891C8.72672 37.3986 8.72671 36.7655 9.11721 36.3749L20.7842 24.7071C21.1747 24.3166 21.1746 23.6834 20.7841 23.2929L9.11726 11.6261C8.72674 11.2355 8.72674 10.6024 9.11726 10.2118L10.5312 8.79793C10.9217 8.4074 11.5549 8.4074 11.9454 8.79793L23.6123 20.4648C24.0028 20.8553 24.6359 20.8553 25.0264 20.4648L36.6943 8.79787C37.0848 8.40737 37.7179 8.40739 38.1084 8.7979L39.5224 10.2118Z" fill="white"/>
</svg>
