<svg width="49" height="48" viewBox="0 0 49 48" fill="none" xmlns="http://www.w3.org/2000/svg">
<path d="M11.4481 12.2636C11.5326 12.5133 11.7123 12.7194 11.9481 12.8373L18.8254 16.2751C19.0952 16.4099 19.2897 16.6594 19.3548 16.954L21.8765 28.3771C21.9354 28.6439 22.101 28.8751 22.3347 29.0167L32.337 35.078C32.4561 35.1502 32.5588 35.2465 32.6385 35.3607L37.3137 42.0543C37.7767 42.7172 37.3024 43.627 36.4939 43.627H6.50781C5.95553 43.627 5.50781 43.1792 5.50781 42.627V5.37305C5.50781 4.82076 5.95553 4.37305 6.50781 4.37305H8.0583C8.48695 4.37305 8.86793 4.64624 9.00544 5.05223L11.4481 12.2636Z" fill="white"/>
<path d="M41.4121 30.2568C43.069 30.2568 44.4121 31.6 44.4121 33.2568C44.4121 34.9137 43.0689 36.2568 41.4121 36.2568C39.7553 36.2568 38.4121 34.9137 38.4121 33.2568C38.4121 31.6 39.7553 30.2568 41.4121 30.2568Z" fill="white"/>
<path d="M31.1367 16.8154C34.4504 16.8154 37.1367 19.5017 37.1367 22.8154C37.1367 26.1291 34.4504 28.8154 31.1367 28.8154C27.823 28.8154 25.1368 26.1291 25.1367 22.8154C25.1367 19.5017 27.823 16.8154 31.1367 16.8154Z" fill="white"/>
<path d="M29.1367 4.57715C31.3459 4.57715 33.1367 6.36801 33.1367 8.57715C33.1367 10.7863 31.3459 12.5771 29.1367 12.5771C26.9276 12.5771 25.1367 10.7863 25.1367 8.57715C25.1367 6.36801 26.9276 4.57715 29.1367 4.57715Z" fill="white"/>
<path d="M17.877 5.57715C19.5338 5.57715 20.877 6.92029 20.877 8.57715C20.877 10.234 19.5338 11.5771 17.877 11.5771C16.2201 11.5771 14.877 10.234 14.877 8.57715C14.877 6.92031 16.2201 5.57717 17.877 5.57715Z" fill="white"/>
</svg>
