<svg width="49" height="48" viewBox="0 0 49 48" fill="none" xmlns="http://www.w3.org/2000/svg">
<path d="M42.5 6.59766C42.5 13.433 38.6287 19.6793 32.5068 22.7197L26.8991 25.5036C26.5589 25.6725 26.3438 26.0195 26.3438 26.3993V33.9164C26.3438 34.4032 26.6959 34.814 27.1671 34.9359C29.977 35.6624 32.3938 37.5626 33.7441 40.2227L33.9739 40.6754C34.3114 41.3407 33.8281 42.1279 33.0821 42.1279H16.1332C15.4034 42.1279 14.9194 41.3715 15.2253 40.7089L15.291 40.5664C16.609 37.7114 19.1378 35.6651 22.1026 34.9205C22.5774 34.8012 22.9336 34.3888 22.9336 33.8992V26.3974C22.9336 26.0176 22.7184 25.6705 22.3782 25.5017L16.7744 22.7197C10.6526 19.6793 6.78125 13.433 6.78125 6.59766V6.59766C6.78125 6.40356 6.98525 6.2771 7.15909 6.36344L14.6484 10.083C19.2548 12.3711 21.9438 16.3229 23.5142 19.4552C23.9331 20.2908 25.2706 20.2599 25.6798 19.4194C27.2095 16.2774 30.0314 12.3686 34.6328 10.083L42.1222 6.36344C42.296 6.2771 42.5 6.40356 42.5 6.59766V6.59766Z" fill="white"/>
</svg>
