<svg width="49" height="48" viewBox="0 0 49 48" fill="none" xmlns="http://www.w3.org/2000/svg">
<path d="M15.3408 25.3057C15.8931 25.3057 16.3347 25.7549 16.3998 26.3034C16.5346 27.4389 16.8985 28.5389 17.4736 29.5352C18.0489 30.5315 18.8197 31.3971 19.7358 32.0818C20.1782 32.4125 20.3464 33.0196 20.0702 33.4979L15.5537 41.3196C15.2776 41.7978 14.6644 41.9639 14.2009 41.6635C11.6179 39.9899 9.46362 37.7254 7.91992 35.0518C6.37615 32.3779 5.49208 29.3794 5.33424 26.3053C5.30592 25.7537 5.75631 25.3057 6.30859 25.3057H15.3408Z" fill="white"/>
<path d="M43.291 25.3057C43.8433 25.3057 44.2937 25.7537 44.2654 26.3053C44.1075 29.3794 43.2235 32.3779 41.6797 35.0518C40.1359 37.7255 37.981 39.9899 35.3978 41.6635C34.9343 41.9638 34.3211 41.7978 34.0449 41.3195L29.5293 33.4979C29.2531 33.0196 29.4214 32.4125 29.8638 32.0819C30.7799 31.3972 31.5507 30.5315 32.126 29.5352C32.7011 28.5389 33.065 27.4389 33.1998 26.3034C33.2649 25.7549 33.7065 25.3057 34.2588 25.3057H43.291Z" fill="white"/>
<path d="M24.8008 19.3057C28.1145 19.3057 30.8008 21.992 30.8008 25.3057C30.8008 28.6194 28.1145 31.3057 24.8008 31.3057C21.4871 31.3057 18.8008 28.6194 18.8008 25.3057C18.8008 21.992 21.4871 19.3057 24.8008 19.3057Z" fill="white"/>
<path d="M24.7998 5.81445C27.8872 5.81445 30.9254 6.54798 33.6664 7.94821C34.1582 8.19946 34.3211 8.81352 34.0449 9.29182L29.5293 17.1135C29.2531 17.5918 28.6433 17.7496 28.1357 17.5319C27.0849 17.081 25.9502 16.8467 24.7998 16.8467C23.6494 16.8467 22.5147 17.081 21.4639 17.5319C20.9563 17.7496 20.3465 17.5918 20.0703 17.1135L15.5547 9.29182C15.2785 8.81352 15.4414 8.19946 15.9332 7.94821C18.6742 6.54798 21.7124 5.81445 24.7998 5.81445Z" fill="white"/>
</svg>
