<svg width="48" height="48" viewBox="0 0 48 48" fill="none" xmlns="http://www.w3.org/2000/svg">
<path d="M24 30.9053C25.1046 30.9053 26 31.8007 26 32.9053C26 34.0098 25.1046 34.9053 24 34.9053C22.8954 34.9053 22 34.0098 22 32.9053C22 31.8007 22.8954 30.9053 24 30.9053Z" fill="white"/>
<path d="M26 28.0195C26 28.5718 25.5523 29.0195 25 29.0195H23C22.4477 29.0195 22 28.5718 22 28.0195V21.0596C22 20.5073 22.4477 20.0596 23 20.0596H25C25.5523 20.0596 26 20.5073 26 21.0596V28.0195Z" fill="white"/>
<path fill-rule="evenodd" clip-rule="evenodd" d="M43.4591 39.1016C43.844 39.7682 43.3629 40.6016 42.5931 40.6016H5.40782C4.63802 40.6016 4.1569 39.7682 4.54179 39.1016L23.134 6.89843C23.5189 6.23176 24.4811 6.23175 24.866 6.89841L43.4591 39.1016ZM11.4696 35.1016C11.0846 35.7682 11.5658 36.6016 12.3356 36.6016H35.6644C36.4342 36.6016 36.9154 35.7682 36.5304 35.1016L24.866 14.8984C24.4811 14.2318 23.5189 14.2318 23.134 14.8984L11.4696 35.1016Z" fill="white"/>
</svg>
