<svg width="563" height="887" viewBox="0 0 563 887" fill="none" xmlns="http://www.w3.org/2000/svg">
<path d="M281.63 0L291.698 632.232C294.827 679.537 329.973 718.538 376.711 726.57L386.631 728.274L368.5 731.39C325.663 738.751 292.11 772.292 284.747 815.116L281.63 833.241L278.514 815.116C271.151 772.292 237.598 738.751 194.761 731.39L176.63 728.274L186.55 726.57C233.288 718.538 268.434 679.537 271.563 632.232L281.63 0Z" fill="white"/>
<path d="M314.578 854.231L281.795 887V873.18C281.795 856.512 288.418 840.527 300.208 828.741L332.993 795.966V809.789C332.993 826.458 326.369 842.445 314.578 854.231Z" fill="white"/>
<path d="M249.012 854.231L281.795 887V873.18C281.795 856.512 275.171 840.527 263.382 828.741L230.596 795.966V809.789C230.596 826.458 237.221 842.445 249.012 854.231Z" fill="white"/>
<path d="M22.922 652.092V660.866H20.6494V652.718L17.1622 648.997H6.46532V660.866H4.19273V633.447H19.3564L22.7653 636.855V645.55L19.7091 648.606L22.922 652.092ZM6.46532 647H18.3768L20.5319 644.884V637.56L18.3768 635.444H6.46532V647Z" fill="white"/>
<path d="M82.2672 633.447H99.2725V635.484H84.5398V646.06H98.1362V648.096H84.5398V658.829H99.2725V660.866H82.2672V633.447Z" fill="white"/>
<path d="M155.508 633.447H157.859L166.283 658.359H166.362L174.747 633.447H177.098L167.616 660.866H164.99L155.508 633.447Z" fill="white"/>
<path d="M234.513 633.447H251.518V635.484H236.786V646.06H250.382V648.096H236.786V658.829H251.518V660.866H234.513V633.447Z" fill="white"/>
<path d="M309.909 633.447H312.182L327.071 657.145H327.15V633.447H329.305V660.866H327.032L312.143 637.129H312.064V660.866H309.909V633.447Z" fill="white"/>
<path d="M396.034 633.447H398.738L408.259 660.866H405.908L403.244 653.032H391.528L388.864 660.866H386.513L396.034 633.447ZM402.578 651.034L397.445 635.914H397.327L392.233 651.034H402.578Z" fill="white"/>
<path d="M465.484 633.447H467.757L482.646 657.145H482.724V633.447H484.88V660.866H482.607L467.718 637.129H467.639V660.866H465.484V633.447Z" fill="white"/>
<path d="M550.786 635.444H542.48V633.447H561.366V635.444H553.059V660.866H550.786V635.444Z" fill="white"/>
<path d="M0 690.755H40.0596V696.78H6.73568V718.576H37.4894V724.6H6.73568V746.75H40.0596V752.775H0V690.755Z" fill="white"/>
<path d="M144.554 690.755H151.821L173.89 752.775H166.888L161.127 736.03H135.248L129.487 752.775H122.486L144.554 690.755ZM159.178 730.182L148.276 698.552H148.099L137.287 730.182H159.178Z" fill="white"/>
<path d="M302.942 733.815V752.775H296.206V735.675L287.698 726.727H265.718V752.775H258.982V690.755H294.433L302.587 698.906V718.487L295.408 725.663L302.942 733.815ZM265.718 720.879H291.509L295.94 716.538V700.944L291.509 696.603H265.718V720.879Z" fill="black"/>
<path d="M405.99 696.692H387.201V690.755H431.515V696.692H412.726V752.775H405.99V696.692Z" fill="white"/>
<path d="M517.446 690.755H524.181V718.841H556.264V690.755H563V752.775H556.264V724.866H524.181V752.775H517.446V690.755Z" fill="white"/>
</svg>
